<svg height="512pt" viewBox="0 -1 512 512" width="512pt" xmlns="http://www.w3.org/2000/svg"><path d="m506.84375 510.757812h-90.21875c-2.847656 0-5.15625-2.308593-5.15625-5.15625v-30.125c0-15.222656 12.34375-27.566406 27.566406-27.566406h45.398438c15.222656 0 27.5625 12.34375 27.5625 27.566406v30.125c0 2.847657-2.304688 5.15625-5.152344 5.15625zm0 0" fill="#e7e7e7"/><path d="m512 475.472656v30.132813c0 2.84375-2.308594 5.15625-5.15625 5.15625h-17.117188v-35.289063c0-15.21875-12.34375-27.5625-27.5625-27.5625h22.273438c15.222656 0 27.5625 12.339844 27.5625 27.5625zm0 0" fill="#cecece"/><path d="m55.136719 480.6875h-34.683594v-19.59375c0-5.253906 4.257813-9.511719 9.511719-9.511719h15.660156c5.253906 0 9.511719 4.257813 9.511719 9.511719zm0 0" fill="#9ae7fd"/><path d="m160.445312 480.6875h-105.308593v-19.59375c0-5.253906 4.257812-9.511719 9.511719-9.511719h86.285156c5.253906 0 9.511718 4.257813 9.511718 9.511719zm0 0" fill="#9ae7fd"/><path d="m195.128906 480.6875h-34.683594v-19.59375c0-5.253906 4.257813-9.511719 9.511719-9.511719h15.660157c5.253906 0 9.511718 4.257813 9.511718 9.511719zm0 0" fill="#9ae7fd"/><path d="m228.171875 480.6875h-34.6875v-19.59375c0-5.253906 4.257813-9.511719 9.511719-9.511719h15.664062c5.253906 0 9.511719 4.257813 9.511719 9.511719zm0 0" fill="#9ae7fd"/><path d="m299.214844 480.6875h-34.6875v-19.59375c0-5.253906 4.257812-9.511719 9.511718-9.511719h14.75c5.757813 0 10.425782 4.667969 10.425782 10.421875zm0 0" fill="#9ae7fd"/><path d="m333.898438 480.6875h-34.683594v-19.59375c0-5.253906 4.257812-9.511719 9.507812-9.511719h15.664063c5.253906 0 9.511719 4.257813 9.511719 9.511719zm0 0" fill="#9ae7fd"/><path d="m368.582031 480.6875h-34.683593v-19.59375c0-5.253906 4.257812-9.511719 9.511718-9.511719h15.660156c5.253907 0 9.511719 4.257813 9.511719 9.511719zm0 0" fill="#9ae7fd"/><path d="m381.398438 510.757812h-376.242188c-2.847656 0-5.15625-2.308593-5.15625-5.15625v-27.179687c0-2.847656 2.308594-5.15625 5.15625-5.15625h376.242188c2.847656 0 5.15625 2.308594 5.15625 5.15625v27.179687c0 2.847657-2.308594 5.15625-5.15625 5.15625zm0 0" fill="#bfbfbf"/><path d="m381.398438 510.757812h-17.578126v-37.492187h17.578126c2.847656 0 5.15625 2.308594 5.15625 5.15625v27.183594c0 2.84375-2.308594 5.152343-5.15625 5.152343zm0 0" fill="#acacac"/><path d="m197.671875 336.957031h116.046875v52.207031h-116.046875zm0 0" fill="#838383"/><path d="m294.21875 336.957031h19.5v52.207031h-19.5zm0 0" fill="#5a5a5a"/><path d="m48.734375 56.03125h414.386719v257.75h-414.386719zm0 0" fill="#9ae7fd"/><path d="m463.121094 21.300781v302.972657c0 11.761718-9.53125 21.296874-21.296875 21.296874h-26.015625c11.765625 0 21.300781-9.535156 21.300781-21.296874v-302.972657c0-11.765625-9.535156-21.29687475-21.300781-21.29687475h26.015625c11.765625 0 21.296875 9.53124975 21.296875 21.29687475zm0 0" fill="#64dcfc"/><path d="m463.121094 294.261719h-414.851563v30.011719c0 11.761718 9.535157 21.296874 21.300781 21.296874h372.25c11.765626 0 21.300782-9.535156 21.300782-21.296874zm0 0" fill="#bfbfbf"/><path d="m463.121094 294.257812v30.015626c0 11.761718-9.53125 21.296874-21.296875 21.296874h-26.015625c11.765625 0 21.300781-9.535156 21.300781-21.296874v-30.015626zm0 0" fill="#acacac"/><path d="m463.59375 72.652344h-414.859375v-51.355469c0-11.761719 9.53125-21.296875 21.292969-21.296875h372.273437c11.761719 0 21.296875 9.535156 21.296875 21.296875v51.355469zm0 0" fill="#bfbfbf"/><path d="m463.597656 21.292969v51.363281h-26.488281v-51.363281c0-11.753907-9.535156-21.28906275-21.300781-21.28906275h26.492187c11.761719 0 21.296875 9.53124975 21.296875 21.28906275zm0 0" fill="#acacac"/><path d="m351.324219 414.863281h-191.257813c-2.304687 0-4.171875-1.871093-4.171875-4.175781v-13.527344c0-9.171875 7.433594-16.609375 16.609375-16.609375h166.386719c9.171875 0 16.609375 7.4375 16.609375 16.609375v13.527344c0 2.304688-1.871094 4.175781-4.175781 4.175781zm0 0" fill="#bfbfbf"/><path d="m355.496094 397.15625v13.535156c0 2.304688-1.867188 4.171875-4.171875 4.171875h-14.734375v-17.707031c0-9.167969-7.441406-16.605469-16.609375-16.605469h18.910156c9.171875 0 16.605469 7.4375 16.605469 16.605469zm0 0" fill="#acacac"/><path d="m100.300781 36.148438c0 6.691406-5.421875 12.113281-12.113281 12.113281s-12.113281-5.421875-12.113281-12.113281c0-6.691407 5.421875-12.113282 12.113281-12.113282s12.113281 5.421875 12.113281 12.113282zm0 0" fill="#ff5757"/><path d="m147.085938 36.148438c0 6.691406-5.421876 12.113281-12.113282 12.113281s-12.113281-5.421875-12.113281-12.113281c0-6.691407 5.421875-12.113282 12.113281-12.113282s12.113282 5.421875 12.113282 12.113282zm0 0" fill="#ffcd6b"/><path d="m193.871094 36.148438c0 6.691406-5.421875 12.113281-12.113282 12.113281-6.691406 0-12.113281-5.421875-12.113281-12.113281 0-6.691407 5.421875-12.113282 12.113281-12.113282 6.691407 0 12.113282 5.421875 12.113282 12.113282zm0 0" fill="#00d3b4"/><path d="m100.296875 36.152344c0 6.6875-5.417969 12.109375-12.105469 12.109375-3.238281 0-6.183594-1.269531-8.355468-3.351563 6.554687-.140625 11.828124-5.5 11.828124-12.09375 0-3.457031-1.441406-6.5625-3.757812-8.765625.09375-.011719.195312-.011719.285156-.011719 6.6875 0 12.105469 5.417969 12.105469 12.113282zm0 0" fill="#ff4343"/><path d="m147.085938 36.152344c0 6.6875-5.417969 12.109375-12.113282 12.109375-3.242187 0-6.179687-1.269531-8.359375-3.351563 6.5625-.140625 11.839844-5.5 11.839844-12.09375 0-3.457031-1.445313-6.5625-3.757813-8.765625.09375-.011719.183594-.011719.277344-.011719 6.695313 0 12.113282 5.417969 12.113282 12.113282zm0 0" fill="#ffc143"/><path d="m193.871094 36.152344c0 6.6875-5.425782 12.109375-12.113282 12.109375-3.238281 0-6.179687-1.269531-8.355468-3.351563 6.5625-.140625 11.828125-5.5 11.828125-12.09375 0-3.457031-1.445313-6.5625-3.757813-8.765625.09375-.011719.191406-.011719.285156-.011719 6.6875 0 12.113282 5.417969 12.113282 12.113282zm0 0" fill="#00b7a0"/><path d="m147.429688 117.859375h-50.84375c-4.144532 0-7.5-3.355469-7.5-7.5 0-4.140625 3.355468-7.5 7.5-7.5h50.84375c4.140624 0 7.5 3.359375 7.5 7.5 0 4.144531-3.359376 7.5-7.5 7.5zm0 0" fill="#ff5757"/><path d="m264.542969 117.859375h-89.394531c-4.144532 0-7.5-3.355469-7.5-7.5 0-4.140625 3.355468-7.5 7.5-7.5h89.394531c4.140625 0 7.5 3.359375 7.5 7.5 0 4.144531-3.359375 7.5-7.5 7.5zm0 0" fill="#ff5757"/><path d="m118.242188 147.367188h-21.65625c-4.144532 0-7.5-3.359376-7.5-7.5 0-4.144532 3.355468-7.5 7.5-7.5h21.65625c4.144531 0 7.5 3.355468 7.5 7.5 0 4.140624-3.355469 7.5-7.5 7.5zm0 0" fill="#ff5757"/><path d="m250.117188 147.367188h-13.191407c-4.140625 0-7.5-3.359376-7.5-7.5 0-4.144532 3.359375-7.5 7.5-7.5h13.191407c4.140624 0 7.5 3.355468 7.5 7.5 0 4.140624-3.359376 7.5-7.5 7.5zm0 0" fill="#ff5757"/><path d="m209.511719 147.367188h-64.785157c-4.140624 0-7.5-3.359376-7.5-7.5 0-4.144532 3.359376-7.5 7.5-7.5h64.785157c4.140625 0 7.5 3.355468 7.5 7.5 0 4.140624-3.359375 7.5-7.5 7.5zm0 0" fill="#ff5757"/><path d="m298.757812 147.367188h-24.707031c-4.140625 0-7.5-3.359376-7.5-7.5 0-4.144532 3.359375-7.5 7.5-7.5h24.707031c4.140626 0 7.5 3.355468 7.5 7.5 0 4.140624-3.359374 7.5-7.5 7.5zm0 0" fill="#ff5757"/><g fill="#bfbfbf"><path d="m270.105469 188.019531h-22.097657c-4.144531 0-7.5-3.359375-7.5-7.5 0-4.144531 3.355469-7.5 7.5-7.5h22.097657c4.140625 0 7.5 3.355469 7.5 7.5 0 4.140625-3.355469 7.5-7.5 7.5zm0 0"/><path d="m340.824219 188.019531h-35.652344c-4.144531 0-7.5-3.359375-7.5-7.5 0-4.144531 3.355469-7.5 7.5-7.5h35.652344c4.144531 0 7.5 3.355469 7.5 7.5 0 4.140625-3.355469 7.5-7.5 7.5zm0 0"/><path d="m417.4375 188.019531h-45.964844c-4.144531 0-7.5-3.359375-7.5-7.5 0-4.144531 3.355469-7.5 7.5-7.5h45.964844c4.144531 0 7.5 3.355469 7.5 7.5 0 4.140625-3.355469 7.5-7.5 7.5zm0 0"/><path d="m305.171875 224.246094h-57.164063c-4.144531 0-7.5-3.359375-7.5-7.5 0-4.144532 3.355469-7.5 7.5-7.5h57.164063c4.140625 0 7.5 3.355468 7.5 7.5 0 4.140625-3.359375 7.5-7.5 7.5zm0 0"/><path d="m354.820312 224.246094h-13.996093c-4.140625 0-7.5-3.359375-7.5-7.5 0-4.144532 3.359375-7.5 7.5-7.5h13.996093c4.144532 0 7.5 3.355468 7.5 7.5 0 4.140625-3.355468 7.5-7.5 7.5zm0 0"/><path d="m417.4375 224.246094h-27.992188c-4.140624 0-7.5-3.359375-7.5-7.5 0-4.144532 3.359376-7.5 7.5-7.5h27.992188c4.144531 0 7.5 3.355468 7.5 7.5 0 4.140625-3.355469 7.5-7.5 7.5zm0 0"/><path d="m270.105469 260.472656h-22.097657c-4.144531 0-7.5-3.359375-7.5-7.5 0-4.144531 3.355469-7.5 7.5-7.5h22.097657c4.140625 0 7.5 3.355469 7.5 7.5 0 4.140625-3.355469 7.5-7.5 7.5zm0 0"/><path d="m371.472656 260.472656h-66.300781c-4.144531 0-7.5-3.359375-7.5-7.5 0-4.144531 3.355469-7.5 7.5-7.5h66.300781c4.140625 0 7.5 3.355469 7.5 7.5 0 4.140625-3.359375 7.5-7.5 7.5zm0 0"/><path d="m417.4375 260.472656h-13.996094c-4.140625 0-7.5-3.359375-7.5-7.5 0-4.144531 3.359375-7.5 7.5-7.5h13.996094c4.144531 0 7.5 3.355469 7.5 7.5 0 4.140625-3.355469 7.5-7.5 7.5zm0 0"/></g><path d="m202.246094 260.964844h-102.660156c-2.847657 0-5.15625-2.308594-5.15625-5.15625v-78.128906c0-2.84375 2.308593-5.15625 5.15625-5.15625h102.660156c2.847656 0 5.15625 2.308593 5.15625 5.15625v78.128906c0 2.847656-2.308594 5.15625-5.15625 5.15625zm0 0" fill="#ffb509"/><path d="m207.398438 177.679688v78.132812c0 2.84375-2.308594 5.15625-5.15625 5.15625h-15.941407c2.847657 0 5.15625-2.3125 5.15625-5.15625v-78.132812c0-2.84375-2.308593-5.15625-5.15625-5.15625h15.941407c2.847656.003906 5.15625 2.3125 5.15625 5.15625zm0 0" fill="#fa0"/></svg>